#!OML:ASF H:\ManfredETheater\Project 1\Capture day 1\Session 1\subject.ASF
:FULLY-SPECIFIED
:DEGREES
145
root 11.0669 15.504 32.1662 -0.958127 36.07 -11.9001
lowerback 15.3345 -0.981295 5.26233
upperback 0.277636 0.101713 4.75661
thorax -8.34664 -0.0316248 2.11174
lowerneck -22.4192 -2.74827 -2.92055
upperneck 10.7153 -2.62429 -1.07902
head 6.91828 -1.48788 -0.208207
rclavicle -5.53118e-014 -4.57205e-014
rhumerus -42.1519 3.52587 -86.1388
rradius 109.897
rwrist -17.1713
rhand -18.9037 10.5102
rfingers 7.12502
rthumb 7.3981 -19.3404
lclavicle -5.53118e-014 -4.57205e-014
lhumerus -60.4829 -11.0259 100.049
lradius 88.368
lwrist 12.7468
lhand -21.8072 -14.3982
lfingers 7.12502
lthumb 4.59493 15.5319
rfemur -25.8506 -13.9924 30.5993
rtibia 67.8285
rfoot -20.9779 -18.6098
rtoes -43.2426
lfemur -50.9739 -2.98576 -8.71815
ltibia 95.053
lfoot -15.3589 -3.79147
ltoes -5.41344
146
root 11.2974 15.5747 32.6105 -0.905052 36.0037 -11.7876
lowerback 15.0801 -0.698687 5.35103
upperback 0.345724 0.449109 4.60279
thorax -8.12532 0.131299 1.81119
lowerneck -22.4692 -3.0053 -3.02454
upperneck 10.8565 -2.977 -0.823414
head 6.98056 -1.63844 -0.152964
rclavicle 5.07398e-014 -3.18055e-014
rhumerus -41.5144 4.50004 -86.3169
rradius 113.226
rwrist -16.7248
rhand -18.6966 10.8965
rfingers 7.12502
rthumb 7.59804 -18.947
lclavicle 5.07398e-014 -3.18055e-014
lhumerus -62.1299 -11.7583 100.285
lradius 90.0326
lwrist 14.0771
lhand -21.3919 -14.7158
lfingers 7.12502
lthumb 4.99598 15.2053
rfemur -24.3963 -13.6356 30.2206
rtibia 68.1762
rfoot -18.4771 -17.7593
rtoes -43.9912
lfemur -52.4111 -2.79573 -9.50557
ltibia 91.0028
lfoot -15.6974 -3.48472
ltoes -4.96098
147
root 11.5324 15.6543 33.0571 -0.912571 35.9308 -11.6279
lowerback 14.887 -0.416322 5.37554
upperback 0.436919 0.789792 4.45573
thorax -7.91138 0.294795 1.55992
lowerneck -22.5158 -3.26746 -3.14796
upperneck 11.0213 -3.33185 -0.566438
head 7.05197 -1.79054 -0.0950684
rclavicle 4.15957e-014 2.38542e-014
rhumerus -40.9853 5.4912 -86.4113
rradius 116.435
rwrist -16.2454
rhand -18.5023 11.3316
rfingers 7.12502
rthumb 7.78558 -18.505
lclavicle 4.15957e-014 2.38542e-014
lhumerus -63.6441 -12.2069 100.402
lradius 91.5684
lwrist 15.4799
lhand -21.3221 -14.6495
lfingers 7.12502
lthumb 5.06338 15.27
rfemur -23.0352 -13.2817 29.7357
rtibia 68.5523
rfoot -15.3194 -16.4935
rtoes -44.0801
lfemur -53.3492 -2.71592 -10.2673
ltibia 86.4284
lfoot -15.8997 -3.43766
ltoes -4.56925
148
root 11.7709 15.7379 33.5054 -0.98294 35.8758 -11.4018
lowerback 14.7689 -0.148383 5.30808
upperback 0.552173 1.10229 4.32006
thorax -7.71373 0.449123 1.38212
lowerneck -22.5615 -3.52355 -3.28551
upperneck 11.2242 -3.67332 -0.320675
head 7.13734 -1.93778 -0.0378099
rclavicle -1.10822e-014 -2.38542e-015
rhumerus -40.5612 6.49987 -86.4431
rradius 119.488
rwrist -15.7932
rhand -18.3113 11.8016
rfingers 7.12502
rthumb 7.96992 -18.0281
lclavicle -1.10822e-014 -2.38542e-015
lhumerus -65.0379 -12.3724 100.4
lradius 92.9492
lwrist 16.6447
lhand -21.2643 -14.6048
lfingers 7.12502
lthumb 5.11914 15.3133
rfemur -21.7593 -12.9563 29.1229
rtibia 68.9607
rfoot -11.6356 -14.821
rtoes -43.2938
lfemur -53.8096 -2.75722 -11.0013
ltibia 81.388
lfoot -15.9239 -3.62644
ltoes -4.38977
149
root 12.0118 15.8206 33.9559 -1.12765 35.8522 -11.119
lowerback 14.7312 0.0969303 5.14622
upperback 0.685363 1.37715 4.2028
thorax -7.54432 0.589164 1.28732
lowerneck -22.5974 -3.76639 -3.42744
upperneck 11.4781 -3.99255 -0.102437
head 7.2389 -2.0772 0.0129705
rclavicle -8.16011e-014 -3.97569e-014
rhumerus -40.2461 7.50618 -86.4342
rradius 122.337
rwrist -15.3922
rhand -18.1254 12.2913
rfingers 7.12502
rthumb 8.14931 -17.5316
lclavicle -8.16011e-014 -3.97569e-014
lhumerus -66.3351 -12.2797 100.295
lradius 94.1706
lwrist 17.4159
lhand -21.2917 -14.3879
lfingers 7.12502
lthumb 5.0927 15.5309
rfemur -20.5398 -12.668 28.3985
rtibia 69.4025
rfoot -7.64638 -12.8443
rtoes -41.4451
lfemur -53.8162 -2.92226 -11.6705
ltibia 75.9672
lfoot -15.7314 -4.04616
ltoes -4.41064
150
root 12.2561 15.8989 34.4079 -1.29826 35.8417 -10.7444
lowerback 14.745 0.323362 4.87683
upperback 0.824827 1.61408 4.09243
thorax -7.40101 0.714285 1.26951
lowerneck -22.617 -3.98983 -3.5732
upperneck 11.7935 -4.28203 0.088786
head 7.35885 -2.20521 0.0582983
rclavicle -1.67973e-014 9.54166e-015
rhumerus -40.0354 8.49736 -86.4011
rradius 124.935
rwrist -15.0818
rhand -17.9539 12.7747
rfingers 7.12502
rthumb 8.31483 -17.0417
lclavicle -1.67973e-014 9.54166e-015
lhumerus -67.5646 -11.9596 100.102
lradius 95.2404
lwrist 17.7782
lhand -21.3193 -14.0146
lfingers 7.12502
lthumb 5.06601 15.9049
rfemur -19.372 -12.4137 27.5381
rtibia 69.8844
rfoot -3.65065 -10.8215
rtoes -38.7145
lfemur -53.4317 -3.19984 -12.3022
ltibia 70.2389
lfoot -15.2142 -4.56177
ltoes -4.72585
151
root 12.5031 15.9683 34.8619 -1.51739 35.8345 -10.3376
lowerback 14.7937 0.527755 4.54728
upperback 0.965678 1.81666 4.00024
thorax -7.28008 0.824537 1.31279
lowerneck -22.6134 -4.18891 -3.71437
upperneck 12.171 -4.53655 0.24424
head 7.4956 -2.31989 0.094787
rclavicle -1.3736e-013 1.35174e-014
rhumerus -39.9243 9.45446 -86.3655
rradius 127.238
rwrist -14.8931
rhand -17.8206 13.2326
rfingers 7.12502
rthumb 8.44347 -16.5786
lclavicle -1.3736e-013 1.35174e-014
lhumerus -68.7466 -11.4524 99.8402
lradius 96.2082
lwrist 17.8299
lhand -21.2495 -13.498
lfingers 7.12502
lthumb 5.13342 16.4198
rfemur -18.2316 -12.1848 26.6168
rtibia 70.4145
rfoot -0.113924 -8.95011
rtoes -35.478
lfemur -52.7174 -3.59506 -12.8077
ltibia 64.3338
lfoot -14.3487 -5.09382
ltoes -5.11802
152
root 12.7529 16.0261 35.3184 -1.74964 35.8207 -9.88748
lowerback 14.8415 0.713613 4.15051
upperback 1.09993 1.98509 3.91938
thorax -7.17029 0.919925 1.41372
lowerneck -22.5823 -4.36055 -3.84161
upperneck 12.6092 -4.75446 0.361266
head 7.64746 -2.42036 0.12047
rclavicle 9.96905e-014 -2.5842e-014
rhumerus -39.9039 10.3494 -86.3387
rradius 129.208
rwrist -14.8425
rhand -17.7245 13.6405
rfingers 7.12502
rthumb 8.53626 -16.1669
lclavicle 9.96905e-014 -2.5842e-014
lhumerus -69.888 -10.8036 99.5234
lradius 97.0948
lwrist 17.7066
lhand -21.0945 -12.9727
lfingers 7.12502
lthumb 5.28313 16.9414
rfemur -17.1219 -11.982 25.6447
rtibia 71.0162
rfoot 2.6124 -7.39864
rtoes -32.1495
lfemur -51.7505 -4.12805 -13.1729
ltibia 58.3834
lfoot -13.1747 -5.44045
ltoes -5.54087
